<mxfile host="app.diagrams.net" modified="2024-05-01T14:02:16.194Z" agent="Mozilla/5.0 (Windows NT 10.0; Win64; x64) AppleWebKit/537.36 (KHTML, like Gecko) Chrome/124.0.0.0 Safari/537.36" etag="7_yQjcUnuFmrOLDheCha" version="24.3.1" type="device">
  <diagram name="Page-1" id="PsJI7rxM4qy0Tq4tHfO_">
    <mxGraphModel dx="1750" dy="870" grid="1" gridSize="10" guides="1" tooltips="1" connect="1" arrows="1" fold="1" page="1" pageScale="1" pageWidth="827" pageHeight="1169" background="none" math="0" shadow="0">
      <root>
        <mxCell id="0" />
        <mxCell id="1" parent="0" />
        <mxCell id="ViQ-UUM5c2DfVasqTYiO-43" style="edgeStyle=orthogonalEdgeStyle;rounded=0;orthogonalLoop=1;jettySize=auto;html=1;entryX=0;entryY=0.5;entryDx=0;entryDy=0;" edge="1" parent="1" source="ViQ-UUM5c2DfVasqTYiO-2" target="ViQ-UUM5c2DfVasqTYiO-10">
          <mxGeometry relative="1" as="geometry">
            <Array as="points">
              <mxPoint x="120" y="575" />
              <mxPoint x="120" y="460" />
            </Array>
          </mxGeometry>
        </mxCell>
        <mxCell id="ViQ-UUM5c2DfVasqTYiO-47" style="edgeStyle=orthogonalEdgeStyle;rounded=0;orthogonalLoop=1;jettySize=auto;html=1;entryX=0;entryY=0.5;entryDx=0;entryDy=0;" edge="1" parent="1" source="ViQ-UUM5c2DfVasqTYiO-2" target="ViQ-UUM5c2DfVasqTYiO-36">
          <mxGeometry relative="1" as="geometry">
            <Array as="points">
              <mxPoint x="55" y="250" />
            </Array>
          </mxGeometry>
        </mxCell>
        <mxCell id="ViQ-UUM5c2DfVasqTYiO-48" style="edgeStyle=orthogonalEdgeStyle;rounded=0;orthogonalLoop=1;jettySize=auto;html=1;entryX=0;entryY=0.5;entryDx=0;entryDy=0;" edge="1" parent="1" source="ViQ-UUM5c2DfVasqTYiO-2" target="ViQ-UUM5c2DfVasqTYiO-27">
          <mxGeometry relative="1" as="geometry">
            <Array as="points">
              <mxPoint x="55" y="750" />
            </Array>
          </mxGeometry>
        </mxCell>
        <mxCell id="ViQ-UUM5c2DfVasqTYiO-2" value="Actor" style="shape=umlActor;verticalLabelPosition=bottom;verticalAlign=top;html=1;outlineConnect=0;" vertex="1" parent="1">
          <mxGeometry x="40" y="550" width="30" height="50" as="geometry" />
        </mxCell>
        <mxCell id="ViQ-UUM5c2DfVasqTYiO-8" value="xem" style="ellipse;whiteSpace=wrap;html=1;" vertex="1" parent="1">
          <mxGeometry x="490" y="255" width="120" height="50" as="geometry" />
        </mxCell>
        <mxCell id="ViQ-UUM5c2DfVasqTYiO-9" value="tìm kiếm" style="ellipse;whiteSpace=wrap;html=1;" vertex="1" parent="1">
          <mxGeometry x="360" y="340" width="120" height="50" as="geometry" />
        </mxCell>
        <mxCell id="ViQ-UUM5c2DfVasqTYiO-10" value="quản lý thông tin hàng hóa" style="ellipse;whiteSpace=wrap;html=1;" vertex="1" parent="1">
          <mxGeometry x="150" y="420" width="120" height="80" as="geometry" />
        </mxCell>
        <mxCell id="ViQ-UUM5c2DfVasqTYiO-11" value="xóa" style="ellipse;whiteSpace=wrap;html=1;" vertex="1" parent="1">
          <mxGeometry x="610" y="400" width="120" height="50" as="geometry" />
        </mxCell>
        <mxCell id="ViQ-UUM5c2DfVasqTYiO-12" value="sửa&amp;nbsp;" style="ellipse;whiteSpace=wrap;html=1;" vertex="1" parent="1">
          <mxGeometry x="360" y="420" width="120" height="50" as="geometry" />
        </mxCell>
        <mxCell id="ViQ-UUM5c2DfVasqTYiO-13" value="thêm" style="ellipse;whiteSpace=wrap;html=1;" vertex="1" parent="1">
          <mxGeometry x="610" y="470" width="120" height="50" as="geometry" />
        </mxCell>
        <mxCell id="ViQ-UUM5c2DfVasqTYiO-14" value="quản lý hóa đơn&amp;nbsp;" style="ellipse;whiteSpace=wrap;html=1;" vertex="1" parent="1">
          <mxGeometry x="350" y="660" width="120" height="60" as="geometry" />
        </mxCell>
        <mxCell id="ViQ-UUM5c2DfVasqTYiO-15" value="lấy thông tin&amp;nbsp;" style="ellipse;whiteSpace=wrap;html=1;" vertex="1" parent="1">
          <mxGeometry x="552.5" y="600" width="120" height="40" as="geometry" />
        </mxCell>
        <mxCell id="ViQ-UUM5c2DfVasqTYiO-16" value="lưu&amp;nbsp;" style="ellipse;whiteSpace=wrap;html=1;" vertex="1" parent="1">
          <mxGeometry x="360" y="490" width="120" height="50" as="geometry" />
        </mxCell>
        <mxCell id="ViQ-UUM5c2DfVasqTYiO-17" value="tạo hóa đơn" style="ellipse;whiteSpace=wrap;html=1;" vertex="1" parent="1">
          <mxGeometry x="790" y="690" width="120" height="40" as="geometry" />
        </mxCell>
        <mxCell id="ViQ-UUM5c2DfVasqTYiO-18" value="kết hợp hóa đơn" style="ellipse;whiteSpace=wrap;html=1;" vertex="1" parent="1">
          <mxGeometry x="790" y="820" width="120" height="40" as="geometry" />
        </mxCell>
        <mxCell id="ViQ-UUM5c2DfVasqTYiO-19" value="lưu hóa đơn&amp;nbsp;" style="ellipse;whiteSpace=wrap;html=1;" vertex="1" parent="1">
          <mxGeometry x="540" y="750" width="120" height="40" as="geometry" />
        </mxCell>
        <mxCell id="ViQ-UUM5c2DfVasqTYiO-20" value="chỉnh sửa hóa đơn" style="ellipse;whiteSpace=wrap;html=1;" vertex="1" parent="1">
          <mxGeometry x="545" y="670" width="120" height="40" as="geometry" />
        </mxCell>
        <mxCell id="ViQ-UUM5c2DfVasqTYiO-21" value="kiểm tra hợp lệ" style="ellipse;whiteSpace=wrap;html=1;" vertex="1" parent="1">
          <mxGeometry x="610" y="320" width="120" height="55" as="geometry" />
        </mxCell>
        <mxCell id="ViQ-UUM5c2DfVasqTYiO-23" value="kiểm tra tồn tại" style="ellipse;whiteSpace=wrap;html=1;" vertex="1" parent="1">
          <mxGeometry x="800" y="322.5" width="120" height="50" as="geometry" />
        </mxCell>
        <mxCell id="ViQ-UUM5c2DfVasqTYiO-24" value="xóa hóa đơn" style="ellipse;whiteSpace=wrap;html=1;" vertex="1" parent="1">
          <mxGeometry x="790" y="620" width="120" height="40" as="geometry" />
        </mxCell>
        <mxCell id="ViQ-UUM5c2DfVasqTYiO-25" value="kiểm tra hợp lệ" style="ellipse;whiteSpace=wrap;html=1;" vertex="1" parent="1">
          <mxGeometry x="790" y="750" width="120" height="40" as="geometry" />
        </mxCell>
        <mxCell id="ViQ-UUM5c2DfVasqTYiO-26" value="hiển thị" style="ellipse;whiteSpace=wrap;html=1;" vertex="1" parent="1">
          <mxGeometry x="790" y="550" width="120" height="50" as="geometry" />
        </mxCell>
        <mxCell id="ViQ-UUM5c2DfVasqTYiO-27" value="quản lý khách hàng" style="ellipse;whiteSpace=wrap;html=1;" vertex="1" parent="1">
          <mxGeometry x="140" y="720" width="120" height="60" as="geometry" />
        </mxCell>
        <mxCell id="ViQ-UUM5c2DfVasqTYiO-28" value="thêm thông tin khách" style="ellipse;whiteSpace=wrap;html=1;" vertex="1" parent="1">
          <mxGeometry x="540" y="880" width="150" height="60" as="geometry" />
        </mxCell>
        <mxCell id="ViQ-UUM5c2DfVasqTYiO-29" value="lưu thông tin khách&amp;nbsp;" style="ellipse;whiteSpace=wrap;html=1;" vertex="1" parent="1">
          <mxGeometry x="320" y="810" width="135" height="50" as="geometry" />
        </mxCell>
        <mxCell id="ViQ-UUM5c2DfVasqTYiO-30" value="chỉnh sửa thông tin" style="ellipse;whiteSpace=wrap;html=1;" vertex="1" parent="1">
          <mxGeometry x="322.5" y="900" width="120" height="50" as="geometry" />
        </mxCell>
        <mxCell id="ViQ-UUM5c2DfVasqTYiO-32" value="xóa thông tin" style="ellipse;whiteSpace=wrap;html=1;" vertex="1" parent="1">
          <mxGeometry x="545" y="950" width="140" height="60" as="geometry" />
        </mxCell>
        <mxCell id="ViQ-UUM5c2DfVasqTYiO-34" value="tạo thông tin" style="ellipse;whiteSpace=wrap;html=1;" vertex="1" parent="1">
          <mxGeometry x="545" y="1020" width="135" height="60" as="geometry" />
        </mxCell>
        <mxCell id="ViQ-UUM5c2DfVasqTYiO-35" value="tìm kiềm thông tin" style="ellipse;whiteSpace=wrap;html=1;" vertex="1" parent="1">
          <mxGeometry x="322.5" y="1000" width="120" height="50" as="geometry" />
        </mxCell>
        <mxCell id="ViQ-UUM5c2DfVasqTYiO-36" value="quản lý nhân viên" style="ellipse;whiteSpace=wrap;html=1;" vertex="1" parent="1">
          <mxGeometry x="150" y="220" width="120" height="60" as="geometry" />
        </mxCell>
        <mxCell id="ViQ-UUM5c2DfVasqTYiO-37" value="tìm kiềm&amp;nbsp;" style="ellipse;whiteSpace=wrap;html=1;" vertex="1" parent="1">
          <mxGeometry x="320" y="30" width="120" height="50" as="geometry" />
        </mxCell>
        <mxCell id="ViQ-UUM5c2DfVasqTYiO-38" value="sửa" style="ellipse;whiteSpace=wrap;html=1;" vertex="1" parent="1">
          <mxGeometry x="323" y="110" width="120" height="50" as="geometry" />
        </mxCell>
        <mxCell id="ViQ-UUM5c2DfVasqTYiO-39" value="thêm&amp;nbsp;" style="ellipse;whiteSpace=wrap;html=1;" vertex="1" parent="1">
          <mxGeometry x="570" y="15" width="120" height="55" as="geometry" />
        </mxCell>
        <mxCell id="ViQ-UUM5c2DfVasqTYiO-40" value="lưu" style="ellipse;whiteSpace=wrap;html=1;" vertex="1" parent="1">
          <mxGeometry x="160" y="30" width="120" height="50" as="geometry" />
        </mxCell>
        <mxCell id="ViQ-UUM5c2DfVasqTYiO-41" value="xóa" style="ellipse;whiteSpace=wrap;html=1;" vertex="1" parent="1">
          <mxGeometry x="570" y="80" width="120" height="40" as="geometry" />
        </mxCell>
        <mxCell id="ViQ-UUM5c2DfVasqTYiO-42" value="tạo" style="ellipse;whiteSpace=wrap;html=1;" vertex="1" parent="1">
          <mxGeometry x="570" y="130" width="120" height="50" as="geometry" />
        </mxCell>
        <mxCell id="ViQ-UUM5c2DfVasqTYiO-55" value="" style="endArrow=block;dashed=1;endFill=0;endSize=12;html=1;rounded=0;entryX=0;entryY=0.5;entryDx=0;entryDy=0;" edge="1" parent="1" source="ViQ-UUM5c2DfVasqTYiO-27" target="ViQ-UUM5c2DfVasqTYiO-14">
          <mxGeometry width="160" relative="1" as="geometry">
            <mxPoint x="260" y="750" as="sourcePoint" />
            <mxPoint x="420" y="750" as="targetPoint" />
          </mxGeometry>
        </mxCell>
        <mxCell id="ViQ-UUM5c2DfVasqTYiO-56" value="" style="endArrow=block;dashed=1;endFill=0;endSize=12;html=1;rounded=0;entryX=0;entryY=0.5;entryDx=0;entryDy=0;exitX=1;exitY=1;exitDx=0;exitDy=0;" edge="1" parent="1" source="ViQ-UUM5c2DfVasqTYiO-27" target="ViQ-UUM5c2DfVasqTYiO-29">
          <mxGeometry width="160" relative="1" as="geometry">
            <mxPoint x="250" y="780" as="sourcePoint" />
            <mxPoint x="390" y="770" as="targetPoint" />
          </mxGeometry>
        </mxCell>
        <mxCell id="ViQ-UUM5c2DfVasqTYiO-57" value="" style="endArrow=block;dashed=1;endFill=0;endSize=12;html=1;rounded=0;entryX=0;entryY=0.5;entryDx=0;entryDy=0;exitX=0.956;exitY=0.147;exitDx=0;exitDy=0;exitPerimeter=0;" edge="1" parent="1" source="ViQ-UUM5c2DfVasqTYiO-14" target="ViQ-UUM5c2DfVasqTYiO-15">
          <mxGeometry width="160" relative="1" as="geometry">
            <mxPoint x="400" y="619" as="sourcePoint" />
            <mxPoint x="510" y="619.41" as="targetPoint" />
            <Array as="points" />
          </mxGeometry>
        </mxCell>
        <mxCell id="ViQ-UUM5c2DfVasqTYiO-58" value="" style="endArrow=block;dashed=1;endFill=0;endSize=12;html=1;rounded=0;entryX=0;entryY=0.5;entryDx=0;entryDy=0;" edge="1" parent="1" target="ViQ-UUM5c2DfVasqTYiO-20">
          <mxGeometry width="160" relative="1" as="geometry">
            <mxPoint x="475" y="690" as="sourcePoint" />
            <mxPoint x="563" y="630" as="targetPoint" />
            <Array as="points" />
          </mxGeometry>
        </mxCell>
        <mxCell id="ViQ-UUM5c2DfVasqTYiO-59" value="" style="endArrow=block;dashed=1;endFill=0;endSize=12;html=1;rounded=0;exitX=1;exitY=1;exitDx=0;exitDy=0;entryX=0.016;entryY=0.276;entryDx=0;entryDy=0;entryPerimeter=0;" edge="1" parent="1" source="ViQ-UUM5c2DfVasqTYiO-14" target="ViQ-UUM5c2DfVasqTYiO-19">
          <mxGeometry width="160" relative="1" as="geometry">
            <mxPoint x="485" y="689" as="sourcePoint" />
            <mxPoint x="573" y="640" as="targetPoint" />
            <Array as="points" />
          </mxGeometry>
        </mxCell>
        <mxCell id="ViQ-UUM5c2DfVasqTYiO-64" value="" style="endArrow=block;dashed=1;endFill=0;endSize=12;html=1;rounded=0;entryX=0;entryY=0.5;entryDx=0;entryDy=0;exitX=0.5;exitY=1;exitDx=0;exitDy=0;" edge="1" parent="1" source="ViQ-UUM5c2DfVasqTYiO-27" target="ViQ-UUM5c2DfVasqTYiO-30">
          <mxGeometry width="160" relative="1" as="geometry">
            <mxPoint x="430" y="850" as="sourcePoint" />
            <mxPoint x="590" y="850" as="targetPoint" />
          </mxGeometry>
        </mxCell>
        <mxCell id="ViQ-UUM5c2DfVasqTYiO-65" value="" style="endArrow=block;dashed=1;endFill=0;endSize=12;html=1;rounded=0;entryX=0;entryY=0.5;entryDx=0;entryDy=0;exitX=0.5;exitY=1;exitDx=0;exitDy=0;" edge="1" parent="1" target="ViQ-UUM5c2DfVasqTYiO-35">
          <mxGeometry width="160" relative="1" as="geometry">
            <mxPoint x="200" y="780" as="sourcePoint" />
            <mxPoint x="323" y="925" as="targetPoint" />
          </mxGeometry>
        </mxCell>
        <mxCell id="ViQ-UUM5c2DfVasqTYiO-66" value="" style="endArrow=block;dashed=1;endFill=0;endSize=12;html=1;rounded=0;entryX=0;entryY=0.5;entryDx=0;entryDy=0;" edge="1" parent="1" target="ViQ-UUM5c2DfVasqTYiO-28">
          <mxGeometry width="160" relative="1" as="geometry">
            <mxPoint x="440" y="920" as="sourcePoint" />
            <mxPoint x="600" y="920" as="targetPoint" />
          </mxGeometry>
        </mxCell>
        <mxCell id="ViQ-UUM5c2DfVasqTYiO-67" value="" style="endArrow=block;dashed=1;endFill=0;endSize=12;html=1;rounded=0;entryX=0;entryY=0.5;entryDx=0;entryDy=0;" edge="1" parent="1" target="ViQ-UUM5c2DfVasqTYiO-32">
          <mxGeometry width="160" relative="1" as="geometry">
            <mxPoint x="450" y="930" as="sourcePoint" />
            <mxPoint x="550" y="920" as="targetPoint" />
          </mxGeometry>
        </mxCell>
        <mxCell id="ViQ-UUM5c2DfVasqTYiO-68" value="" style="endArrow=block;dashed=1;endFill=0;endSize=12;html=1;rounded=0;entryX=-0.002;entryY=0.343;entryDx=0;entryDy=0;entryPerimeter=0;exitX=0.942;exitY=0.798;exitDx=0;exitDy=0;exitPerimeter=0;" edge="1" parent="1" source="ViQ-UUM5c2DfVasqTYiO-30" target="ViQ-UUM5c2DfVasqTYiO-34">
          <mxGeometry width="160" relative="1" as="geometry">
            <mxPoint x="460" y="940" as="sourcePoint" />
            <mxPoint x="560" y="930" as="targetPoint" />
          </mxGeometry>
        </mxCell>
        <mxCell id="ViQ-UUM5c2DfVasqTYiO-69" value="" style="endArrow=block;dashed=1;endFill=0;endSize=12;html=1;rounded=0;entryX=0;entryY=0.5;entryDx=0;entryDy=0;exitX=1;exitY=0.5;exitDx=0;exitDy=0;" edge="1" parent="1" source="ViQ-UUM5c2DfVasqTYiO-20" target="ViQ-UUM5c2DfVasqTYiO-24">
          <mxGeometry width="160" relative="1" as="geometry">
            <mxPoint x="670" y="710" as="sourcePoint" />
            <mxPoint x="830" y="710" as="targetPoint" />
          </mxGeometry>
        </mxCell>
        <mxCell id="ViQ-UUM5c2DfVasqTYiO-71" value="" style="endArrow=block;dashed=1;endFill=0;endSize=12;html=1;rounded=0;entryX=0.003;entryY=0.294;entryDx=0;entryDy=0;exitX=1;exitY=0.5;exitDx=0;exitDy=0;entryPerimeter=0;" edge="1" parent="1" target="ViQ-UUM5c2DfVasqTYiO-17">
          <mxGeometry width="160" relative="1" as="geometry">
            <mxPoint x="665" y="690" as="sourcePoint" />
            <mxPoint x="790" y="640" as="targetPoint" />
          </mxGeometry>
        </mxCell>
        <mxCell id="ViQ-UUM5c2DfVasqTYiO-72" value="" style="endArrow=block;dashed=1;endFill=0;endSize=12;html=1;rounded=0;entryX=0;entryY=0.5;entryDx=0;entryDy=0;" edge="1" parent="1" target="ViQ-UUM5c2DfVasqTYiO-25">
          <mxGeometry width="160" relative="1" as="geometry">
            <mxPoint x="670" y="690" as="sourcePoint" />
            <mxPoint x="800" y="650" as="targetPoint" />
          </mxGeometry>
        </mxCell>
        <mxCell id="ViQ-UUM5c2DfVasqTYiO-73" value="" style="endArrow=block;dashed=1;endFill=0;endSize=12;html=1;rounded=0;entryX=0;entryY=0.5;entryDx=0;entryDy=0;exitX=0.924;exitY=0.771;exitDx=0;exitDy=0;exitPerimeter=0;" edge="1" parent="1" source="ViQ-UUM5c2DfVasqTYiO-20" target="ViQ-UUM5c2DfVasqTYiO-18">
          <mxGeometry width="160" relative="1" as="geometry">
            <mxPoint x="685" y="710" as="sourcePoint" />
            <mxPoint x="810" y="660" as="targetPoint" />
          </mxGeometry>
        </mxCell>
        <mxCell id="ViQ-UUM5c2DfVasqTYiO-74" value="" style="endArrow=block;dashed=1;endFill=0;endSize=12;html=1;rounded=0;entryX=0;entryY=0.5;entryDx=0;entryDy=0;exitX=1;exitY=0.5;exitDx=0;exitDy=0;" edge="1" parent="1" source="ViQ-UUM5c2DfVasqTYiO-20" target="ViQ-UUM5c2DfVasqTYiO-26">
          <mxGeometry width="160" relative="1" as="geometry">
            <mxPoint x="695" y="720" as="sourcePoint" />
            <mxPoint x="820" y="670" as="targetPoint" />
          </mxGeometry>
        </mxCell>
        <mxCell id="ViQ-UUM5c2DfVasqTYiO-75" value="" style="endArrow=block;dashed=1;endFill=0;endSize=12;html=1;rounded=0;entryX=-0.005;entryY=0.685;entryDx=0;entryDy=0;entryPerimeter=0;exitX=1;exitY=0.25;exitDx=0;exitDy=0;exitPerimeter=0;" edge="1" parent="1" source="ViQ-UUM5c2DfVasqTYiO-10" target="ViQ-UUM5c2DfVasqTYiO-9">
          <mxGeometry width="160" relative="1" as="geometry">
            <mxPoint x="520" y="430" as="sourcePoint" />
            <mxPoint x="680" y="430" as="targetPoint" />
          </mxGeometry>
        </mxCell>
        <mxCell id="ViQ-UUM5c2DfVasqTYiO-76" value="" style="endArrow=block;dashed=1;endFill=0;endSize=12;html=1;rounded=0;exitX=1;exitY=0.5;exitDx=0;exitDy=0;" edge="1" parent="1" source="ViQ-UUM5c2DfVasqTYiO-10" target="ViQ-UUM5c2DfVasqTYiO-12">
          <mxGeometry width="160" relative="1" as="geometry">
            <mxPoint x="280" y="450" as="sourcePoint" />
            <mxPoint x="369" y="384" as="targetPoint" />
          </mxGeometry>
        </mxCell>
        <mxCell id="ViQ-UUM5c2DfVasqTYiO-77" value="" style="endArrow=block;dashed=1;endFill=0;endSize=12;html=1;rounded=0;exitX=1;exitY=1;exitDx=0;exitDy=0;entryX=0;entryY=0.5;entryDx=0;entryDy=0;" edge="1" parent="1" source="ViQ-UUM5c2DfVasqTYiO-10" target="ViQ-UUM5c2DfVasqTYiO-16">
          <mxGeometry width="160" relative="1" as="geometry">
            <mxPoint x="520" y="430" as="sourcePoint" />
            <mxPoint x="680" y="430" as="targetPoint" />
          </mxGeometry>
        </mxCell>
        <mxCell id="ViQ-UUM5c2DfVasqTYiO-78" value="" style="endArrow=block;dashed=1;endFill=0;endSize=12;html=1;rounded=0;entryX=0;entryY=0.5;entryDx=0;entryDy=0;" edge="1" parent="1" target="ViQ-UUM5c2DfVasqTYiO-11">
          <mxGeometry width="160" relative="1" as="geometry">
            <mxPoint x="480" y="440" as="sourcePoint" />
            <mxPoint x="640" y="440" as="targetPoint" />
          </mxGeometry>
        </mxCell>
        <mxCell id="ViQ-UUM5c2DfVasqTYiO-79" value="" style="endArrow=block;dashed=1;endFill=0;endSize=12;html=1;rounded=0;entryX=0;entryY=0.5;entryDx=0;entryDy=0;" edge="1" parent="1" target="ViQ-UUM5c2DfVasqTYiO-13">
          <mxGeometry width="160" relative="1" as="geometry">
            <mxPoint x="490" y="450" as="sourcePoint" />
            <mxPoint x="620" y="435" as="targetPoint" />
          </mxGeometry>
        </mxCell>
        <mxCell id="ViQ-UUM5c2DfVasqTYiO-80" value="" style="endArrow=block;dashed=1;endFill=0;endSize=12;html=1;rounded=0;entryX=0;entryY=0.5;entryDx=0;entryDy=0;exitX=0.944;exitY=0.176;exitDx=0;exitDy=0;exitPerimeter=0;" edge="1" parent="1" source="ViQ-UUM5c2DfVasqTYiO-12" target="ViQ-UUM5c2DfVasqTYiO-21">
          <mxGeometry width="160" relative="1" as="geometry">
            <mxPoint x="500" y="460" as="sourcePoint" />
            <mxPoint x="630" y="445" as="targetPoint" />
          </mxGeometry>
        </mxCell>
        <mxCell id="ViQ-UUM5c2DfVasqTYiO-81" value="" style="endArrow=block;dashed=1;endFill=0;endSize=12;html=1;rounded=0;entryX=0;entryY=0.5;entryDx=0;entryDy=0;exitX=1;exitY=0.5;exitDx=0;exitDy=0;" edge="1" parent="1" source="ViQ-UUM5c2DfVasqTYiO-21" target="ViQ-UUM5c2DfVasqTYiO-23">
          <mxGeometry width="160" relative="1" as="geometry">
            <mxPoint x="620" y="260" as="sourcePoint" />
            <mxPoint x="780" y="260" as="targetPoint" />
          </mxGeometry>
        </mxCell>
        <mxCell id="ViQ-UUM5c2DfVasqTYiO-82" value="" style="endArrow=block;dashed=1;endFill=0;endSize=12;html=1;rounded=0;entryX=0;entryY=0.5;entryDx=0;entryDy=0;exitX=0.426;exitY=0.026;exitDx=0;exitDy=0;exitPerimeter=0;" edge="1" parent="1" source="ViQ-UUM5c2DfVasqTYiO-9" target="ViQ-UUM5c2DfVasqTYiO-8">
          <mxGeometry width="160" relative="1" as="geometry">
            <mxPoint x="440" y="190" as="sourcePoint" />
            <mxPoint x="600" y="190" as="targetPoint" />
          </mxGeometry>
        </mxCell>
        <mxCell id="ViQ-UUM5c2DfVasqTYiO-83" value="" style="endArrow=block;dashed=1;endFill=0;endSize=12;html=1;rounded=0;entryX=0;entryY=0.5;entryDx=0;entryDy=0;exitX=0.5;exitY=0;exitDx=0;exitDy=0;" edge="1" parent="1" source="ViQ-UUM5c2DfVasqTYiO-36" target="ViQ-UUM5c2DfVasqTYiO-38">
          <mxGeometry width="160" relative="1" as="geometry">
            <mxPoint x="390" y="190" as="sourcePoint" />
            <mxPoint x="550" y="190" as="targetPoint" />
          </mxGeometry>
        </mxCell>
        <mxCell id="ViQ-UUM5c2DfVasqTYiO-84" value="" style="endArrow=block;dashed=1;endFill=0;endSize=12;html=1;rounded=0;entryX=0.5;entryY=1;entryDx=0;entryDy=0;exitX=0.5;exitY=0;exitDx=0;exitDy=0;" edge="1" parent="1" source="ViQ-UUM5c2DfVasqTYiO-36" target="ViQ-UUM5c2DfVasqTYiO-40">
          <mxGeometry width="160" relative="1" as="geometry">
            <mxPoint x="390" y="190" as="sourcePoint" />
            <mxPoint x="550" y="190" as="targetPoint" />
          </mxGeometry>
        </mxCell>
        <mxCell id="ViQ-UUM5c2DfVasqTYiO-85" value="" style="endArrow=block;dashed=1;endFill=0;endSize=12;html=1;rounded=0;exitX=0.5;exitY=0;exitDx=0;exitDy=0;entryX=-0.025;entryY=0.673;entryDx=0;entryDy=0;entryPerimeter=0;" edge="1" parent="1" source="ViQ-UUM5c2DfVasqTYiO-36" target="ViQ-UUM5c2DfVasqTYiO-37">
          <mxGeometry width="160" relative="1" as="geometry">
            <mxPoint x="410" y="170" as="sourcePoint" />
            <mxPoint x="570" y="170" as="targetPoint" />
          </mxGeometry>
        </mxCell>
        <mxCell id="ViQ-UUM5c2DfVasqTYiO-86" value="" style="endArrow=block;dashed=1;endFill=0;endSize=12;html=1;rounded=0;entryX=0;entryY=0.5;entryDx=0;entryDy=0;exitX=1;exitY=0.5;exitDx=0;exitDy=0;" edge="1" parent="1" source="ViQ-UUM5c2DfVasqTYiO-38" target="ViQ-UUM5c2DfVasqTYiO-39">
          <mxGeometry width="160" relative="1" as="geometry">
            <mxPoint x="400" y="120" as="sourcePoint" />
            <mxPoint x="560" y="120" as="targetPoint" />
          </mxGeometry>
        </mxCell>
        <mxCell id="ViQ-UUM5c2DfVasqTYiO-87" value="" style="endArrow=block;dashed=1;endFill=0;endSize=12;html=1;rounded=0;entryX=0;entryY=0.5;entryDx=0;entryDy=0;exitX=1;exitY=0.5;exitDx=0;exitDy=0;" edge="1" parent="1" source="ViQ-UUM5c2DfVasqTYiO-38" target="ViQ-UUM5c2DfVasqTYiO-41">
          <mxGeometry width="160" relative="1" as="geometry">
            <mxPoint x="453" y="145" as="sourcePoint" />
            <mxPoint x="580" y="53" as="targetPoint" />
          </mxGeometry>
        </mxCell>
        <mxCell id="ViQ-UUM5c2DfVasqTYiO-89" value="" style="endArrow=block;dashed=1;endFill=0;endSize=12;html=1;rounded=0;entryX=0;entryY=0.5;entryDx=0;entryDy=0;exitX=1;exitY=0.5;exitDx=0;exitDy=0;" edge="1" parent="1" source="ViQ-UUM5c2DfVasqTYiO-38" target="ViQ-UUM5c2DfVasqTYiO-42">
          <mxGeometry width="160" relative="1" as="geometry">
            <mxPoint x="463" y="155" as="sourcePoint" />
            <mxPoint x="590" y="63" as="targetPoint" />
          </mxGeometry>
        </mxCell>
      </root>
    </mxGraphModel>
  </diagram>
</mxfile>
